<svg width="375" height="242" viewBox="0 0 375 242" xmlns="http://www.w3.org/2000/svg">
    <g fill="none" fill-rule="evenodd">
        <circle cx="50" cy="50" r="50" transform="translate(18 1)" stroke="#FFF"/>
        <circle cx="50" cy="50" r="50" transform="translate(138 1)" stroke="#FFF"/>
        <circle cx="50" cy="50" r="50" transform="translate(258 1)" stroke="#FFF"/>
        <circle cx="50" cy="50" r="50" transform="translate(18 141)" stroke="#FFF"/>
        <circle cx="50" cy="50" r="50" transform="translate(138 141)" stroke="#FFF"/>
        <circle cx="50" cy="50" r="50" transform="translate(258 141)" stroke="#FFF"/>
        <g fill="#FFF">
            <g transform="translate(118 49)">
                <path d="M0 1.5h20v1H0z"/>
                <circle cx="20" cy="2" r="2"/>
            </g>
            <g transform="translate(238 49)">
                <path d="M0 1.5h20v1H0z"/>
                <circle cx="20" cy="2" r="2"/>
            </g>
            <path d="M358 50.5h17v1h-17zM0 191h18v1H0z"/>
            <g transform="translate(118 189)">
                <path d="M0 1.5h20v1H0z"/>
                <circle cx="20" cy="2" r="2"/>
            </g>
            <g transform="translate(238 189)">
                <path d="M0 1.5h20v1H0z"/>
                <circle cx="20" cy="2" r="2"/>
            </g>
        </g>
    </g>
</svg>
