<svg width="104" height="101" viewBox="0 0 104 101" xmlns="http://www.w3.org/2000/svg">
    <g stroke="#FAFAFA" stroke-width="1.5" fill="none" fill-rule="evenodd" stroke-linecap="round">
        <path d="M6.401 25.794C10.414 37.47 18.665 47.339 28.52 54.612c8.83 6.517 21.73 13.783 33.078 13.171.97-.052 1.935-.17 2.886-.363 6.768-1.374 12.137-7.422 9.896-14.532-1.402-4.448-7.715-13.153-13.291-9.508-2.386 1.56-2.532 4.764-2 7.302.653 3.106 2.575 5.841 4.512 8.287 7.855 9.916 26.197 12.938 37.805 11.488"/>
        <path d="M97.408 73.62a72.505 72.505 0 0 1 4.603-3.145 29.276 29.276 0 0 0-5.006-2.604" stroke-linejoin="round"/>
    </g>
</svg>
