<svg width="1162" height="162" viewBox="0 0 1162 162" xmlns="http://www.w3.org/2000/svg">
    <g fill="none" fill-rule="evenodd">
        <circle cx="80" cy="80" r="80" stroke="#FFF" transform="translate(1 1)"/>
        <circle cx="80" cy="80" r="80" transform="translate(201 1)" stroke="#FFF"/>
        <circle cx="80" cy="80" r="80" transform="translate(401 1)" stroke="#FFF"/>
        <circle cx="80" cy="80" r="80" transform="translate(601 1)" stroke="#FFF"/>
        <circle cx="80" cy="80" r="80" transform="translate(801 1)" stroke="#FFF"/>
        <circle cx="80" cy="80" r="80" transform="translate(1001 1)" stroke="#FFF"/>
        <g transform="translate(161 77)" fill="#FFF">
            <path d="M0 3h40v1H0z"/>
            <circle cx="40" cy="4" r="4"/>
        </g>
        <g transform="translate(361 77)" fill="#FFF">
            <path d="M0 3h40v1H0z"/>
            <circle cx="40" cy="4" r="4"/>
        </g>
        <g transform="translate(561 77)" fill="#FFF">
            <path d="M0 3h40v1H0z"/>
            <circle cx="40" cy="4" r="4"/>
        </g>
        <g transform="translate(761 77)" fill="#FFF">
            <path d="M0 3h40v1H0z"/>
            <circle cx="40" cy="4" r="4"/>
        </g>
        <g transform="translate(961 77)" fill="#FFF">
            <path d="M0 3h40v1H0z"/>
            <circle cx="40" cy="4" r="4"/>
        </g>
    </g>
</svg>
