<svg width="391" height="378" viewBox="0 0 391 378" xmlns="http://www.w3.org/2000/svg">
    <g stroke="#FAFAFA" fill="none" fill-rule="evenodd" stroke-linecap="round">
        <path d="M19.135 93.728c15.47 45.042 47.29 83.097 85.296 111.146 34.055 25.133 83.81 53.15 127.579 50.784a76.824 76.824 0 0 0 11.133-1.4c26.107-5.305 46.816-28.636 38.178-56.06-5.404-17.154-29.752-50.729-51.26-36.666-9.203 6.019-9.768 18.375-7.715 28.165 2.513 11.98 9.924 22.531 17.396 31.963 30.293 38.243 101.035 49.888 145.812 44.288" stroke-width="2.5"/>
        <path d="M370.13 278.154a279.775 279.775 0 0 1 17.756-12.136 112.88 112.88 0 0 0-19.307-10.042" stroke-width="3" stroke-linejoin="round"/>
    </g>
</svg>
